<svg width="32" height="32" viewBox="0 0 32 32" fill="none" xmlns="http://www.w3.org/2000/svg">
<path opacity="0.1" fill-rule="evenodd" clip-rule="evenodd" d="M0 16C0 7.16344 7.16344 0 16 0C24.8366 0 32 7.16344 32 16C32 24.8366 24.8366 32 16 32C7.16344 32 0 24.8366 0 16Z" fill="#555A70"/>
<path d="M13.2975 25V16.5539H11V13.5129H13.2975V10.9154C13.2975 8.87438 14.6546 7 17.7818 7C19.0479 7 19.9841 7.11799 19.9841 7.11799L19.9104 9.95778C19.9104 9.95778 18.9555 9.94874 17.9136 9.94874C16.7859 9.94874 16.6052 10.4539 16.6052 11.2924V13.5129H20L19.8523 16.5539H16.6052V25H13.2975Z" fill="#555A70"/>
</svg>
