<svg width="32" height="32" viewBox="0 0 32 32" fill="none" xmlns="http://www.w3.org/2000/svg">
<path opacity="0.1" fill-rule="evenodd" clip-rule="evenodd" d="M0 16C0 7.16344 7.16344 0 16 0C24.8366 0 32 7.16344 32 16C32 24.8366 24.8366 32 16 32C7.16344 32 0 24.8366 0 16Z" fill="#555A70"/>
<path d="M16 7C11.0294 7 7 11.0294 7 16C7 20.9706 11.0294 25 16 25C20.9706 25 25 20.9706 25 16C25 11.0294 20.9706 7 16 7ZM13.7969 19.7303H11.9744V13.8653H13.7969V19.7303ZM12.8744 13.1453C12.2987 13.1453 11.9266 12.7375 11.9266 12.2331C11.9266 11.7184 12.31 11.3228 12.8978 11.3228C13.4856 11.3228 13.8456 11.7184 13.8569 12.2331C13.8569 12.7375 13.4856 13.1453 12.8744 13.1453ZM20.4531 19.7303H18.6306V16.48C18.6306 15.7234 18.3663 15.2097 17.7072 15.2097C17.2037 15.2097 16.9047 15.5575 16.7725 15.8922C16.7238 16.0112 16.7116 16.18 16.7116 16.3478V19.7294H14.8881V15.7356C14.8881 15.0034 14.8647 14.3912 14.8403 13.8644H16.4237L16.5072 14.6791H16.5437C16.7837 14.2966 17.3716 13.7322 18.355 13.7322C19.5541 13.7322 20.4531 14.5356 20.4531 16.2625V19.7303Z" fill="#555A70"/>
</svg>
